<svg xmlns="http://www.w3.org/2000/svg" viewBox="0 0 16 16" shape-rendering="crispEdges" fill="black">
  <rect x="1" y="4" width="1" height="1"/>
  <rect x="2" y="4" width="1" height="1"/>
  <rect x="3" y="4" width="1" height="1"/>
  <rect x="4" y="4" width="1" height="1"/>
  <rect x="5" y="4" width="1" height="1"/>
  <rect x="6" y="4" width="1" height="1"/>
  <rect x="1" y="5" width="1" height="1"/>
  <rect x="2" y="5" width="1" height="1"/>
  <rect x="3" y="5" width="1" height="1"/>
  <rect x="4" y="5" width="1" height="1"/>
  <rect x="5" y="5" width="1" height="1"/>
  <rect x="6" y="5" width="1" height="1"/>
  <rect x="6" y="6" width="1" height="1"/>
  <rect x="7" y="6" width="1" height="1"/>
  <rect x="6" y="7" width="1" height="1"/>
  <rect x="7" y="7" width="1" height="1"/>
  <rect x="1" y="8" width="1" height="1"/>
  <rect x="2" y="8" width="1" height="1"/>
  <rect x="3" y="8" width="1" height="1"/>
  <rect x="4" y="8" width="1" height="1"/>
  <rect x="5" y="8" width="1" height="1"/>
  <rect x="6" y="8" width="1" height="1"/>
  <rect x="7" y="8" width="1" height="1"/>
  <rect x="1" y="9" width="1" height="1"/>
  <rect x="2" y="9" width="1" height="1"/>
  <rect x="3" y="9" width="1" height="1"/>
  <rect x="4" y="9" width="1" height="1"/>
  <rect x="5" y="9" width="1" height="1"/>
  <rect x="6" y="9" width="1" height="1"/>
  <rect x="7" y="9" width="1" height="1"/>
  <rect x="0" y="10" width="1" height="1"/>
  <rect x="1" y="10" width="1" height="1"/>
  <rect x="6" y="10" width="1" height="1"/>
  <rect x="7" y="10" width="1" height="1"/>
  <rect x="0" y="11" width="1" height="1"/>
  <rect x="1" y="11" width="1" height="1"/>
  <rect x="6" y="11" width="1" height="1"/>
  <rect x="7" y="11" width="1" height="1"/>
  <rect x="0" y="12" width="1" height="1"/>
  <rect x="1" y="12" width="1" height="1"/>
  <rect x="6" y="12" width="1" height="1"/>
  <rect x="7" y="12" width="1" height="1"/>
  <rect x="0" y="13" width="1" height="1"/>
  <rect x="1" y="13" width="1" height="1"/>
  <rect x="6" y="13" width="1" height="1"/>
  <rect x="7" y="13" width="1" height="1"/>
  <rect x="1" y="14" width="1" height="1"/>
  <rect x="2" y="14" width="1" height="1"/>
  <rect x="3" y="14" width="1" height="1"/>
  <rect x="4" y="14" width="1" height="1"/>
  <rect x="5" y="14" width="1" height="1"/>
  <rect x="6" y="14" width="1" height="1"/>
  <rect x="7" y="14" width="1" height="1"/>
  <rect x="1" y="15" width="1" height="1"/>
  <rect x="2" y="15" width="1" height="1"/>
  <rect x="3" y="15" width="1" height="1"/>
  <rect x="4" y="15" width="1" height="1"/>
  <rect x="5" y="15" width="1" height="1"/>
  <rect x="6" y="15" width="1" height="1"/>
  <rect x="7" y="15" width="1" height="1"/>
</svg>
