<svg xmlns="http://www.w3.org/2000/svg" viewBox="0 0 16 16" shape-rendering="crispEdges" fill="black">
  <rect x="0" y="0" width="1" height="1"/>
  <rect x="1" y="0" width="1" height="1"/>
  <rect x="2" y="0" width="1" height="1"/>
  <rect x="3" y="0" width="1" height="1"/>
  <rect x="4" y="0" width="1" height="1"/>
  <rect x="5" y="0" width="1" height="1"/>
  <rect x="6" y="0" width="1" height="1"/>
  <rect x="7" y="0" width="1" height="1"/>
  <rect x="8" y="0" width="1" height="1"/>
  <rect x="0" y="1" width="1" height="1"/>
  <rect x="1" y="1" width="1" height="1"/>
  <rect x="2" y="1" width="1" height="1"/>
  <rect x="3" y="1" width="1" height="1"/>
  <rect x="4" y="1" width="1" height="1"/>
  <rect x="5" y="1" width="1" height="1"/>
  <rect x="6" y="1" width="1" height="1"/>
  <rect x="7" y="1" width="1" height="1"/>
  <rect x="8" y="1" width="1" height="1"/>
  <rect x="0" y="2" width="1" height="1"/>
  <rect x="1" y="2" width="1" height="1"/>
  <rect x="8" y="2" width="1" height="1"/>
  <rect x="9" y="2" width="1" height="1"/>
  <rect x="0" y="3" width="1" height="1"/>
  <rect x="1" y="3" width="1" height="1"/>
  <rect x="8" y="3" width="1" height="1"/>
  <rect x="9" y="3" width="1" height="1"/>
  <rect x="0" y="4" width="1" height="1"/>
  <rect x="1" y="4" width="1" height="1"/>
  <rect x="8" y="4" width="1" height="1"/>
  <rect x="9" y="4" width="1" height="1"/>
  <rect x="0" y="5" width="1" height="1"/>
  <rect x="1" y="5" width="1" height="1"/>
  <rect x="8" y="5" width="1" height="1"/>
  <rect x="9" y="5" width="1" height="1"/>
  <rect x="0" y="6" width="1" height="1"/>
  <rect x="1" y="6" width="1" height="1"/>
  <rect x="8" y="6" width="1" height="1"/>
  <rect x="9" y="6" width="1" height="1"/>
  <rect x="0" y="7" width="1" height="1"/>
  <rect x="1" y="7" width="1" height="1"/>
  <rect x="8" y="7" width="1" height="1"/>
  <rect x="9" y="7" width="1" height="1"/>
  <rect x="0" y="8" width="1" height="1"/>
  <rect x="1" y="8" width="1" height="1"/>
  <rect x="8" y="8" width="1" height="1"/>
  <rect x="9" y="8" width="1" height="1"/>
  <rect x="0" y="9" width="1" height="1"/>
  <rect x="1" y="9" width="1" height="1"/>
  <rect x="8" y="9" width="1" height="1"/>
  <rect x="9" y="9" width="1" height="1"/>
  <rect x="0" y="10" width="1" height="1"/>
  <rect x="1" y="10" width="1" height="1"/>
  <rect x="8" y="10" width="1" height="1"/>
  <rect x="9" y="10" width="1" height="1"/>
  <rect x="0" y="11" width="1" height="1"/>
  <rect x="1" y="11" width="1" height="1"/>
  <rect x="8" y="11" width="1" height="1"/>
  <rect x="9" y="11" width="1" height="1"/>
  <rect x="0" y="12" width="1" height="1"/>
  <rect x="1" y="12" width="1" height="1"/>
  <rect x="8" y="12" width="1" height="1"/>
  <rect x="9" y="12" width="1" height="1"/>
  <rect x="0" y="13" width="1" height="1"/>
  <rect x="1" y="13" width="1" height="1"/>
  <rect x="8" y="13" width="1" height="1"/>
  <rect x="9" y="13" width="1" height="1"/>
  <rect x="0" y="14" width="1" height="1"/>
  <rect x="1" y="14" width="1" height="1"/>
  <rect x="2" y="14" width="1" height="1"/>
  <rect x="3" y="14" width="1" height="1"/>
  <rect x="4" y="14" width="1" height="1"/>
  <rect x="5" y="14" width="1" height="1"/>
  <rect x="6" y="14" width="1" height="1"/>
  <rect x="7" y="14" width="1" height="1"/>
  <rect x="8" y="14" width="1" height="1"/>
  <rect x="0" y="15" width="1" height="1"/>
  <rect x="1" y="15" width="1" height="1"/>
  <rect x="2" y="15" width="1" height="1"/>
  <rect x="3" y="15" width="1" height="1"/>
  <rect x="4" y="15" width="1" height="1"/>
  <rect x="5" y="15" width="1" height="1"/>
  <rect x="6" y="15" width="1" height="1"/>
  <rect x="7" y="15" width="1" height="1"/>
  <rect x="8" y="15" width="1" height="1"/>
</svg>
